<svg width="21" height="23" viewBox="0 0 21 23" fill="none" xmlns="http://www.w3.org/2000/svg">
<path d="M19.705 8.93034L19.705 8.93036L19.7138 8.93936C19.9159 9.0933 20.08 9.2927 20.1931 9.52178C20.3075 9.75346 20.3667 10.0091 20.366 10.2681M19.705 8.93034L4.45569 4.0174C4.40716 4.01723 4.35908 4.02681 4.31421 4.04559C4.26934 4.06437 4.22857 4.09199 4.19426 4.12684C4.15994 4.16169 4.13275 4.20309 4.11426 4.24866C4.09576 4.29423 4.08633 4.34306 4.0865 4.39235H3.97053V4.39252V6.57058L1.54678 8.92861L1.54676 8.9286L1.54502 8.93037L1.53615 8.93937C1.33405 9.09331 1.17002 9.29271 1.0569 9.52178C0.94251 9.75342 0.883331 10.009 0.884042 10.268M19.705 8.93034L19.7032 8.92861L17.2795 6.57057V4.39274L19.705 8.93034ZM20.366 10.2681L20.25 10.2678H20.366V10.2681ZM20.366 10.2681V20.4515V20.4517C20.3649 20.8929 20.1916 21.316 19.8836 21.6282C19.5754 21.9403 19.1575 22.116 18.7215 22.116H2.5285C2.09246 22.116 1.67458 21.9403 1.36644 21.6282C1.05835 21.316 0.885068 20.8929 0.884043 20.4517L0.884042 20.4515L0.884042 10.268M0.884042 10.268C0.884043 10.268 0.884043 10.2681 0.884043 10.2681L1.00001 10.2678H0.884042V10.268ZM6.71243 3.90144H4.45588L17.1635 4.39235C17.1637 4.34306 17.1542 4.29423 17.1357 4.24866C17.1172 4.20309 17.09 4.16169 17.0557 4.12684C17.0214 4.09199 16.9806 4.06437 16.9358 4.04559C16.8909 4.02681 16.8428 4.01723 16.7943 4.0174V3.90144H16.7941H14.5376L12.028 1.45999C12.0279 1.45993 12.0279 1.45987 12.0278 1.45982C11.6517 1.09068 11.1488 0.884036 10.625 0.884036C10.1012 0.884036 9.5983 1.09068 9.22221 1.45982C9.22215 1.45987 9.22209 1.45993 9.22204 1.45999L6.71243 3.90144ZM9.89367 2.16574L9.89371 2.1657C10.0907 1.97371 10.3527 1.8668 10.625 1.8668C10.8973 1.8668 11.1593 1.97371 11.3563 2.1657L11.3564 2.16581L13.1416 3.90144H8.11173L9.89367 2.16574ZM11.5641 15.4596L11.5636 15.4601C11.3029 15.69 10.9696 15.8164 10.625 15.8164C10.2804 15.8164 9.94706 15.69 9.68642 15.4601L9.68585 15.4596L4.94086 11.3286V4.88325H16.3091V11.3286L11.5641 15.4596ZM19.2517 10.0666L19.2523 10.0661L19.3391 9.98957C19.3762 10.0769 19.3956 10.1716 19.3957 10.2678C19.3957 10.2678 19.3957 10.2678 19.3957 10.2678L19.3956 20.4509C19.3948 20.633 19.3229 20.8069 19.1964 20.9348C19.0699 21.0627 18.8992 21.1341 18.7215 21.1341H2.52849C2.35085 21.1341 2.18006 21.0627 2.05359 20.9348C1.92713 20.807 1.8553 20.6331 1.85437 20.4512L1.85437 10.2679C1.85437 10.2679 1.85437 10.2678 1.85437 10.2678C1.85445 10.1695 1.87492 10.0729 1.91383 9.98405L9.05316 16.2041C9.05323 16.2042 9.05329 16.2042 9.05335 16.2043C9.48951 16.5878 10.0474 16.7992 10.625 16.7992C11.2026 16.7992 11.7605 16.5878 12.1966 16.2043C12.1967 16.2042 12.1968 16.2042 12.1968 16.2041L19.2517 10.0666ZM17.2795 7.92904L18.6648 9.27691L17.2795 10.4819L17.2795 7.92904ZM2.58428 9.27784L3.97053 7.92904V10.4856L2.63874 9.32626L2.63784 9.32547L2.58428 9.27784Z" fill="#999999" stroke="#999999" stroke-width="0.231928"/>
<path d="M12.0214 8.17697C11.9899 8.17704 11.9593 8.16675 11.9338 8.14757C11.9083 8.12838 11.8894 8.10131 11.8798 8.07025L12.0214 8.17697ZM12.0214 8.17697H13.1833C13.3822 8.17696 13.5759 8.24221 13.7368 8.36338C13.8977 8.48455 14.0175 8.65541 14.0789 8.85146C14.1404 9.04752 14.1404 9.25872 14.0789 9.45477C14.0174 9.65082 13.8977 9.82167 13.7367 9.94282L12.0214 8.17697ZM8.04896 9.18538L8.049 9.18541L8.98878 9.89321C8.98881 9.89323 8.98885 9.89326 8.98888 9.89329L8.98892 9.89331L8.91915 9.98594L8.04896 9.18538ZM8.04896 9.18538C8.04326 9.18109 8.03836 9.17451 8.03572 9.16611C8.03307 9.15768 8.03307 9.14847 8.03571 9.14003C8.03834 9.13162 8.04324 9.12504 8.04893 9.12075C8.05456 9.11651 8.0608 9.11458 8.06675 9.11458L9.22833 9.11456L9.22857 8.9986L9.22857 9.11456H9.22845C9.45295 9.11501 9.67136 9.04152 9.85218 8.90536C10.033 8.76923 10.1667 8.57764 10.2349 8.3587L10.594 7.2133L10.594 7.21325C10.5967 7.20486 10.6016 7.19828 10.6072 7.194C10.6129 7.18977 10.6191 7.18785 10.625 7.18785C10.631 7.18785 10.6372 7.18977 10.6428 7.194C10.6485 7.19828 10.6534 7.20486 10.656 7.21325L10.656 7.2133M8.04896 9.18538L10.656 7.2133M9.01277 12.2575L9.01274 12.2576C9.01008 12.266 9.01007 12.2752 9.01271 12.2837C9.01535 12.2921 9.02025 12.2987 9.02595 12.303C9.03157 12.3072 9.03781 12.3091 9.04376 12.3091C9.04971 12.3091 9.05595 12.3072 9.06157 12.303L9.06169 12.3029L10.0015 11.5952C10.0016 11.5951 10.0017 11.595 10.0018 11.595C10.1823 11.4584 10.4006 11.3844 10.6252 11.3844C10.8497 11.3845 11.068 11.4585 11.2485 11.5952C11.2486 11.5953 11.2486 11.5953 11.2487 11.5954L12.1883 12.3029L12.1884 12.3029C12.1941 12.3072 12.2003 12.3091 12.2063 12.3091C12.2122 12.3091 12.2185 12.3072 12.2241 12.3029C12.2298 12.2986 12.2347 12.292 12.2373 12.2836C12.24 12.2752 12.24 12.2659 12.2373 12.2575L12.2372 12.2573L11.8781 11.1122C11.8781 11.1122 11.8781 11.1121 11.8781 11.1121C11.8092 10.8935 11.8091 10.6579 11.8777 10.4392C11.9462 10.2205 12.0802 10.0292 12.2611 9.89331L9.01277 12.2575ZM9.01277 12.2575L9.3719 11.1122M9.01277 12.2575L9.3719 11.1122M10.656 7.2133L11.0151 8.35869L10.656 7.2133ZM9.3719 11.1122L9.37194 11.1121L9.3719 11.1122ZM9.04327 13.3662L9.04428 13.3662C9.26908 13.3652 9.48731 13.2902 9.66749 13.1527C9.6676 13.1526 9.66771 13.1525 9.66782 13.1524L10.6075 12.4448L10.6078 12.4446C10.6132 12.4405 10.6193 12.4386 10.625 12.4386C10.6307 12.4386 10.6368 12.4405 10.6422 12.4446L10.6427 12.445L11.5828 13.1529C11.7635 13.289 11.9817 13.3627 12.2061 13.3627C12.4305 13.3627 12.6487 13.2891 12.8295 13.1529C13.0101 13.0169 13.1439 12.8256 13.2125 12.6069C13.281 12.3882 13.281 12.1528 13.2125 11.9341L13.2125 11.9341L12.8533 10.7887L12.8532 10.7885C12.8506 10.7801 12.8506 10.771 12.8532 10.7626L12.7426 10.7279L12.8532 10.7626C12.8558 10.7543 12.8607 10.7478 12.8663 10.7436L12.8666 10.7434L13.8065 10.0355C13.8065 10.0355 13.8065 10.0355 13.8065 10.0354C13.9872 9.89942 14.121 9.70812 14.1895 9.48946C14.2581 9.27083 14.2581 9.03542 14.1896 8.81678C14.121 8.59811 13.9872 8.4068 13.8066 8.27075C13.6259 8.13464 13.4077 8.06099 13.1833 8.06101L12.0214 8.06101L12.0211 8.06101C12.0153 8.06102 12.0091 8.05913 12.0036 8.05494C11.9979 8.0507 11.9931 8.04418 11.9905 8.03584L11.9904 8.03556L11.6312 6.88996L11.6312 6.88995C11.5627 6.67131 11.4289 6.48003 11.2482 6.34401C11.0675 6.20793 10.8494 6.13428 10.625 6.13428C10.4006 6.13428 10.1825 6.20793 10.0018 6.34401C9.82111 6.48003 9.68731 6.67131 9.61875 6.88995L9.61875 6.88996L9.25958 8.03556L9.25949 8.03584C9.2569 8.04418 9.25205 8.0507 9.24642 8.05494C9.24086 8.05913 9.23471 8.06102 9.22885 8.06101H9.22857H8.06672C8.06672 8.06101 8.06671 8.06101 8.06671 8.06101C7.84232 8.06099 7.62414 8.13465 7.44341 8.27075C7.26276 8.4068 7.12896 8.59811 7.06042 8.81678C6.9919 9.03542 6.99191 9.27083 7.06046 9.48946C7.12901 9.70813 7.26283 9.89943 7.4435 10.0355L8.3834 10.7434L8.38368 10.7436C8.38932 10.7478 8.39419 10.7543 8.3968 10.7626C8.39943 10.771 8.39942 10.7801 8.39678 10.7885L8.39669 10.7887L8.03789 11.9332C8.03783 11.9334 8.03776 11.9336 8.0377 11.9338C7.9668 12.1524 7.96567 12.3888 8.03447 12.6082C8.10325 12.8274 8.23847 13.0187 8.42096 13.1533C8.60096 13.2904 8.81884 13.3652 9.04327 13.3662ZM13.201 9.18541L12.2612 9.89321L11.1258 8.32421C11.187 8.52046 11.3066 8.69152 11.4676 8.81273C11.6286 8.93393 11.8225 8.99902 12.0214 8.99862V9.11458H12.0216C12.0216 9.11458 12.0216 9.11458 12.0217 9.11458L13.1833 9.11458C13.1892 9.11458 13.1955 9.11651 13.2011 9.12075C13.2068 9.12504 13.2117 9.13163 13.2143 9.14003L13.325 9.10539L13.2143 9.14003C13.2169 9.14847 13.2169 9.15767 13.2143 9.16611C13.2117 9.17451 13.2068 9.18109 13.2011 9.18538L13.201 9.18541Z" fill="#999999" stroke="none" stroke-width="0.231928"/>
</svg>
