<svg width="219" height="53" viewBox="0 0 219 53" fill="none" xmlns="http://www.w3.org/2000/svg">
<path d="M58.4945 31.6074H52.0465V42.5258H45.7427V12.1604H58.9683C62.0172 12.1604 64.448 12.9433 66.2609 14.5089C68.0738 16.0745 68.9802 18.4986 68.9802 21.7809C68.9802 25.3654 68.0738 27.8993 66.2609 29.3826C64.448 30.8658 61.8592 31.6074 58.4945 31.6074ZM61.4609 25.283C62.285 24.5551 62.697 23.4015 62.697 21.8221C62.697 20.2427 62.2781 19.1166 61.4403 18.4436C60.6163 17.7707 59.4558 17.4342 57.9588 17.4342H52.0465V26.3749H57.9588C59.4558 26.3749 60.6232 26.0109 61.4609 25.283ZM91.9911 22.914C93.8863 25.2899 94.834 28.0984 94.834 31.3396C94.834 34.6357 93.8863 37.458 91.9911 39.8065C90.0958 42.1412 87.2186 43.3086 83.3594 43.3086C79.5002 43.3086 76.623 42.1412 74.7278 39.8065C72.8325 37.458 71.8849 34.6357 71.8849 31.3396C71.8849 28.0984 72.8325 25.2899 74.7278 22.914C76.623 20.538 79.5002 19.35 83.3594 19.35C87.2186 19.35 90.0958 20.538 91.9911 22.914ZM83.3388 24.3148C81.6221 24.3148 80.2968 24.926 79.3629 26.1483C78.4427 27.3568 77.9827 29.0873 77.9827 31.3396C77.9827 33.592 78.4427 35.3293 79.3629 36.5516C80.2968 37.7739 81.6221 38.385 83.3388 38.385C85.0555 38.385 86.374 37.7739 87.2941 36.5516C88.2143 35.3293 88.6744 33.592 88.6744 31.3396C88.6744 29.0873 88.2143 27.3568 87.2941 26.1483C86.374 24.926 85.0555 24.3148 83.3388 24.3148ZM118.483 28.1259H112.468C112.358 27.2882 112.077 26.5328 111.623 25.8598C110.964 24.9534 109.941 24.5002 108.554 24.5002C106.576 24.5002 105.224 25.4822 104.496 27.4461C104.111 28.4899 103.919 29.877 103.919 31.6074C103.919 33.2555 104.111 34.5808 104.496 35.5833C105.196 37.4511 106.515 38.385 108.451 38.385C109.824 38.385 110.799 38.0142 111.376 37.2726C111.953 36.531 112.303 35.5696 112.427 34.3885H118.422C118.284 36.1739 117.639 37.8631 116.485 39.4563C114.645 42.0245 111.919 43.3086 108.307 43.3086C104.695 43.3086 102.037 42.2373 100.334 40.0949C98.6314 37.9524 97.7799 35.1713 97.7799 31.7516C97.7799 27.8924 98.7206 24.8916 100.602 22.7492C102.484 20.6067 105.079 19.5355 108.389 19.5355C111.205 19.5355 113.505 20.1672 115.29 21.4307C117.09 22.6942 118.154 24.926 118.483 28.1259ZM143.142 42.5258H136.056L130.679 32.9259L128.248 35.4597V42.5258H122.48V12.2634H128.248V28.6203L135.561 20.1741H142.833L134.985 28.7645L143.142 42.5258ZM146.871 22.5019C148.423 20.5243 151.087 19.5355 154.864 19.5355C157.323 19.5355 159.506 20.023 161.415 20.9981C163.324 21.9732 164.279 23.8135 164.279 26.5191V36.8194C164.279 37.5335 164.292 38.3988 164.32 39.4151C164.361 40.1842 164.478 40.706 164.67 40.9807C164.862 41.2554 165.151 41.482 165.535 41.6605V42.5258H159.149C158.971 42.0725 158.847 41.6468 158.778 41.2485C158.71 40.8502 158.655 40.397 158.614 39.8889C157.803 40.7678 156.869 41.5163 155.812 42.1343C154.548 42.8622 153.12 43.2262 151.527 43.2262C149.494 43.2262 147.812 42.6494 146.48 41.4957C145.161 40.3284 144.502 38.6803 144.502 36.5516C144.502 33.7911 145.566 31.7928 147.695 30.5568C148.863 29.8838 150.579 29.4032 152.845 29.1147L154.844 28.8675C155.929 28.7302 156.705 28.5585 157.171 28.3525C158.009 27.9954 158.428 27.4392 158.428 26.6839C158.428 25.7637 158.105 25.132 157.46 24.7886C156.828 24.4315 155.894 24.253 154.658 24.253C153.271 24.253 152.289 24.5963 151.712 25.283C151.3 25.7912 151.026 26.4779 150.888 27.3431H145.223C145.347 25.3792 145.896 23.7654 146.871 22.5019ZM151.238 38.282C151.788 38.7352 152.461 38.9618 153.257 38.9618C154.521 38.9618 155.681 38.591 156.739 37.8494C157.81 37.1078 158.366 35.755 158.408 33.7911V31.6074C158.037 31.8409 157.659 32.0332 157.274 32.1842C156.904 32.3216 156.389 32.452 155.729 32.5757L154.411 32.8229C153.175 33.0426 152.289 33.3104 151.754 33.6263C150.847 34.1619 150.394 34.9928 150.394 36.119C150.394 37.1215 150.675 37.8425 151.238 38.282ZM188.32 22.4813C190.132 24.4178 191.039 27.2607 191.039 31.01C191.039 34.9653 190.146 37.9799 188.361 40.0537C186.589 42.1275 184.303 43.1644 181.501 43.1644C179.715 43.1644 178.232 42.718 177.051 41.8253C176.406 41.3309 175.774 40.6099 175.156 39.6623V51.3634H169.346V20.0711H174.97V23.3878C175.602 22.4127 176.275 21.6436 176.989 21.0805C178.294 20.0779 179.846 19.5767 181.645 19.5767C184.268 19.5767 186.493 20.5449 188.32 22.4813ZM184.982 31.2984C184.982 29.568 184.584 28.0366 183.787 26.7045C183.005 25.3723 181.727 24.7062 179.956 24.7062C177.827 24.7062 176.364 25.7156 175.568 27.7345C175.156 28.8057 174.95 30.1654 174.95 31.8134C174.95 34.4228 175.643 36.2563 177.03 37.3138C177.855 37.9318 178.83 38.2408 179.956 38.2408C181.59 38.2408 182.833 37.6091 183.684 36.3456C184.55 35.0821 184.982 33.3997 184.982 31.2984ZM214.112 22.4813C215.924 24.4178 216.831 27.2607 216.831 31.01C216.831 34.9653 215.938 37.9799 214.153 40.0537C212.381 42.1275 210.094 43.1644 207.293 43.1644C205.507 43.1644 204.024 42.718 202.843 41.8253C202.198 41.3309 201.566 40.6099 200.948 39.6623V51.3634H195.138V20.0711H200.762V23.3878C201.394 22.4127 202.067 21.6436 202.781 21.0805C204.086 20.0779 205.638 19.5767 207.437 19.5767C210.06 19.5767 212.285 20.5449 214.112 22.4813ZM210.774 31.2984C210.774 29.568 210.376 28.0366 209.579 26.7045C208.797 25.3723 207.519 24.7062 205.748 24.7062C203.619 24.7062 202.156 25.7156 201.36 27.7345C200.948 28.8057 200.742 30.1654 200.742 31.8134C200.742 34.4228 201.435 36.2563 202.822 37.3138C203.646 37.9318 204.622 38.2408 205.748 38.2408C207.382 38.2408 208.625 37.6091 209.476 36.3456C210.342 35.0821 210.774 33.3997 210.774 31.2984Z" fill="white"/>
<path d="M35.8323 20.7449C35.4427 19.8867 34.8123 19.16 34.0178 18.653C33.2232 18.1461 32.2986 17.8806 31.3561 17.8888H24.1206L30.6135 6.46882C31.001 5.8204 31.2084 5.08029 31.2143 4.32493C31.2201 3.56957 31.0243 2.82633 30.6469 2.17196C30.2761 1.50913 29.7341 0.957957 29.0777 0.575939C28.4212 0.193921 27.6743 -0.00494267 26.9148 9.33251e-05C25.9317 0.00106395 24.9785 0.338359 24.2136 0.955941C24.1752 0.98686 24.138 1.01922 24.102 1.05303L2.10909 21.6745C1.16602 22.4934 0.495846 23.5811 0.188427 24.7917C-0.118991 26.0023 -0.0489655 27.278 0.389117 28.4476C0.827199 29.6173 1.6124 30.6251 2.63944 31.3359C3.66649 32.0467 4.88629 32.4266 6.13532 32.4245H13.0077L6.05097 45.7829C6.04409 45.7964 6.03696 45.8099 6.03033 45.8237C5.568 46.7327 5.44918 47.7781 5.69569 48.7677C5.94221 49.7573 6.5375 50.6248 7.37224 51.2107C8.19181 51.8177 9.20282 52.1086 10.2196 52.0301C11.2365 51.9516 12.1908 51.5089 12.9075 50.7834C12.9292 50.762 12.9504 50.74 12.971 50.7179L28.7258 33.7042C28.9094 33.5088 29.0525 33.2789 29.1469 33.0278C29.2413 32.7768 29.2851 32.5096 29.2757 32.2416C29.2664 31.9735 29.2041 31.71 29.0925 31.4662C28.9808 31.2223 28.8221 31.0029 28.6253 30.8207C28.4285 30.6385 28.1976 30.497 27.9459 30.4044C27.6942 30.3118 27.4267 30.2699 27.1587 30.2812C26.8908 30.2924 26.6277 30.3566 26.3847 30.4699C26.1416 30.5833 25.9234 30.7436 25.7426 30.9417L10.0239 47.9163C9.95845 47.9775 9.89118 48.0149 9.75026 47.9133C9.60043 47.8052 9.62616 47.7262 9.66846 47.6388L18.1613 31.33C18.3226 31.0202 18.4014 30.6739 18.39 30.3247C18.3787 29.9755 18.2775 29.6352 18.0962 29.3365C17.915 29.0378 17.6599 28.7908 17.3554 28.6194C17.051 28.448 16.7075 28.358 16.3581 28.358H6.13455C5.60242 28.3644 5.08877 28.163 4.70284 27.7966C4.3169 27.4301 4.08912 26.9276 4.06792 26.3959C4.04502 26.0803 4.09886 25.7639 4.22484 25.4737C4.35082 25.1835 4.54521 24.9281 4.79137 24.7293C4.81431 24.7094 4.83699 24.6893 4.85916 24.6684L26.7996 4.09615C26.834 4.07631 26.873 4.06585 26.9127 4.06582C26.9527 4.06583 26.9919 4.07642 27.0265 4.09653C27.061 4.11663 27.0896 4.14552 27.1094 4.18026C27.1291 4.21501 27.1393 4.25437 27.1389 4.29433C27.1385 4.3343 27.1276 4.37345 27.1071 4.4078C27.1 4.41977 27.0929 4.43328 27.086 4.44449L18.8572 18.9185C18.6814 19.2278 18.5898 19.5777 18.5916 19.9334C18.5933 20.2891 18.6884 20.6381 18.8673 20.9456C19.0461 21.2531 19.3025 21.5082 19.6109 21.6856C19.9192 21.8629 20.2687 21.9563 20.6244 21.9563H31.3538C31.518 21.949 31.6805 21.9916 31.82 22.0785C31.9595 22.1654 32.0695 22.2925 32.1353 22.443C32.2084 22.595 32.2336 22.7654 32.2078 22.932C32.182 23.0986 32.1064 23.2534 31.9909 23.3762C31.6456 23.7859 31.476 24.3153 31.519 24.8493C31.5619 25.3834 31.8139 25.8789 32.2202 26.2281C32.6266 26.5773 33.1543 26.752 33.6887 26.7143C34.2232 26.6765 34.7211 26.4293 35.0742 26.0264C35.6984 25.314 36.1024 24.4357 36.2369 23.4981C36.3715 22.5605 36.231 21.6041 35.8323 20.7449Z" fill="#14EBA1"/>
</svg>
