<svg width="57" height="43" viewBox="0 0 57 43" fill="none" xmlns="http://www.w3.org/2000/svg">
<rect width="57" height="43" fill="#5459EA"/>
<path d="M29 8C21.8318 8 16 13.8318 16 21C16 28.1682 21.8318 34 29 34C36.1682 34 42 28.1682 42 21C42 13.8318 36.1682 8 29 8ZM29 32.7812C22.5038 32.7812 17.2188 27.4962 17.2188 21C17.2188 14.5038 22.5038 9.21875 29 9.21875C35.4962 9.21875 40.7812 14.5038 40.7812 21C40.7812 27.4962 35.4962 32.7812 29 32.7812ZM35.7989 23.3646C35.7988 23.3646 35.7988 23.3646 35.7989 23.3646L33.4107 21.9858C33.045 21.7747 32.6183 21.7188 32.2093 21.8283C31.8002 21.9379 31.4586 22.1997 31.2475 22.5654C31.125 22.7776 30.9105 23.0446 30.5841 23.1113C30.2864 23.1722 30.0236 23.1132 29.7807 22.9309C28.8832 22.2573 27.7429 21.1169 27.0692 20.2193C26.8869 19.9764 26.8278 19.7136 26.8887 19.416C26.9554 19.0895 27.2224 18.875 27.4346 18.7525C28.1908 18.3159 28.4508 17.3455 28.0142 16.5893L26.6354 14.2011C26.2405 13.5171 25.4203 13.2303 24.6853 13.5189L24.6567 13.5301C23.5155 13.9781 22.6809 14.322 22.3358 14.6671C21.7089 15.294 21.074 16.4606 21.6092 18.4583C22.6489 22.3384 27.6616 27.3511 31.5417 28.3908C32.0686 28.532 32.5376 28.5917 32.9542 28.5917C34.1172 28.5917 34.8714 28.1258 35.333 27.6642C35.6781 27.3192 36.0218 26.4848 36.4698 25.3438L36.4812 25.3148C36.7697 24.5797 36.4828 23.7596 35.7989 23.3646ZM35.3466 24.8693L35.3352 24.8984C35.1191 25.4489 34.6694 26.5943 34.4711 26.8024C33.8894 27.3842 33.0099 27.5224 31.857 27.2136C28.3804 26.282 23.7178 21.6195 22.7863 18.1428C22.4774 16.9901 22.6157 16.1105 23.1969 15.5294C23.4056 15.3305 24.5514 14.8807 25.1019 14.6646L25.1306 14.6533C25.1762 14.6353 25.2227 14.6268 25.2682 14.6268C25.3941 14.6268 25.5119 14.6929 25.5798 14.8105L26.9586 17.1987C27.0591 17.3729 26.9993 17.5964 26.8251 17.697C26.219 18.0469 25.8175 18.5707 25.6945 19.1718C25.5635 19.8125 25.7018 20.4277 26.0943 20.9508C26.8402 21.9448 28.0553 23.1598 29.0491 23.9056C29.5722 24.2981 30.1874 24.4364 30.8282 24.3054C31.4293 24.1824 31.953 23.7809 32.303 23.1748C32.3513 23.091 32.43 23.0309 32.5247 23.0056C32.6192 22.9803 32.7175 22.9929 32.8013 23.0413L35.1895 24.4201C35.3496 24.5126 35.4142 24.6973 35.3466 24.8693Z" fill="white"/>
</svg>
