<svg width="21" height="23" viewBox="0 0 21 23" fill="none" xmlns="http://www.w3.org/2000/svg">
<g id="Group 11143">
<g id="Vector">
<mask id="path-1-outside-1_35_36066" maskUnits="userSpaceOnUse" x="0" y="0" width="21" height="23" fill="black">
<rect fill="white" width="21" height="23"/>
<path d="M19.6371 9.02672L19.6223 9.01172L17.1635 6.61954V4.39235C17.1637 4.34306 17.1542 4.29423 17.1357 4.24866C17.1172 4.20309 17.09 4.16169 17.0557 4.12684C17.0214 4.09199 16.9806 4.06437 16.9358 4.04559C16.8909 4.02681 16.8428 4.01723 16.7943 4.0174H14.4905L11.9467 1.54274C11.5921 1.1946 11.1182 1 10.625 1C10.1318 1 9.65789 1.1946 9.30328 1.54274L6.75953 4.0174H4.45569C4.40716 4.01723 4.35908 4.02681 4.31421 4.04559C4.26934 4.06437 4.22857 4.09199 4.19426 4.12684C4.15994 4.16169 4.13275 4.20309 4.11426 4.24866C4.09576 4.29423 4.08633 4.34306 4.0865 4.39235V6.61955L1.62765 9.01173L1.61288 9.02673C1.42215 9.1704 1.26733 9.35756 1.16088 9.57313C1.05442 9.7887 0.99932 10.0266 1.00001 10.2678V20.4515C1.00096 20.8625 1.16242 21.2564 1.44897 21.5467C1.73551 21.837 2.12374 22 2.52849 22H18.7215C19.1263 22 19.5145 21.837 19.801 21.5467C20.0876 21.2564 20.249 20.8625 20.25 20.4515V10.2678C20.2507 10.0266 20.1956 9.78869 20.0891 9.57312C19.9827 9.35755 19.8278 9.17039 19.6371 9.02672ZM17.1635 7.65442L18.836 9.28169L17.1635 10.7365L17.1635 7.65442ZM9.81276 2.08267C10.0312 1.86974 10.3222 1.75084 10.625 1.75084C10.9278 1.75084 11.2188 1.86974 11.4372 2.08267L13.4272 4.0174H7.82647L9.81276 2.08267ZM4.82489 4.76729H16.4251V11.3814L11.6403 15.5471C11.3586 15.7956 10.9981 15.9324 10.625 15.9324C10.2519 15.9324 9.89138 15.7956 9.60971 15.5471L4.82489 11.3814V4.76729ZM4.0865 7.65442V10.7402L2.56171 9.41293L2.41404 9.28168L4.0865 7.65442ZM19.5116 20.4515C19.5106 20.6636 19.4269 20.8667 19.2788 21.0164C19.1308 21.166 18.9304 21.2501 18.7215 21.2501H2.52849C2.3196 21.2501 2.11921 21.166 1.97115 21.0164C1.8231 20.8667 1.73941 20.6636 1.7384 20.4515V10.2678C1.73853 10.1015 1.78878 9.93928 1.88241 9.80287L9.12975 16.117C9.54492 16.4822 10.0758 16.6832 10.625 16.6832C11.1742 16.6832 11.7051 16.4822 12.1202 16.117L19.1756 9.97911L19.3713 9.80661C19.4627 9.94252 19.5116 10.1032 19.5116 10.2678L19.5116 20.4515Z"/>
</mask>
<path d="M19.6371 9.02672L19.6223 9.01172L17.1635 6.61954V4.39235C17.1637 4.34306 17.1542 4.29423 17.1357 4.24866C17.1172 4.20309 17.09 4.16169 17.0557 4.12684C17.0214 4.09199 16.9806 4.06437 16.9358 4.04559C16.8909 4.02681 16.8428 4.01723 16.7943 4.0174H14.4905L11.9467 1.54274C11.5921 1.1946 11.1182 1 10.625 1C10.1318 1 9.65789 1.1946 9.30328 1.54274L6.75953 4.0174H4.45569C4.40716 4.01723 4.35908 4.02681 4.31421 4.04559C4.26934 4.06437 4.22857 4.09199 4.19426 4.12684C4.15994 4.16169 4.13275 4.20309 4.11426 4.24866C4.09576 4.29423 4.08633 4.34306 4.0865 4.39235V6.61955L1.62765 9.01173L1.61288 9.02673C1.42215 9.1704 1.26733 9.35756 1.16088 9.57313C1.05442 9.7887 0.99932 10.0266 1.00001 10.2678V20.4515C1.00096 20.8625 1.16242 21.2564 1.44897 21.5467C1.73551 21.837 2.12374 22 2.52849 22H18.7215C19.1263 22 19.5145 21.837 19.801 21.5467C20.0876 21.2564 20.249 20.8625 20.25 20.4515V10.2678C20.2507 10.0266 20.1956 9.78869 20.0891 9.57312C19.9827 9.35755 19.8278 9.17039 19.6371 9.02672ZM17.1635 7.65442L18.836 9.28169L17.1635 10.7365L17.1635 7.65442ZM9.81276 2.08267C10.0312 1.86974 10.3222 1.75084 10.625 1.75084C10.9278 1.75084 11.2188 1.86974 11.4372 2.08267L13.4272 4.0174H7.82647L9.81276 2.08267ZM4.82489 4.76729H16.4251V11.3814L11.6403 15.5471C11.3586 15.7956 10.9981 15.9324 10.625 15.9324C10.2519 15.9324 9.89138 15.7956 9.60971 15.5471L4.82489 11.3814V4.76729ZM4.0865 7.65442V10.7402L2.56171 9.41293L2.41404 9.28168L4.0865 7.65442ZM19.5116 20.4515C19.5106 20.6636 19.4269 20.8667 19.2788 21.0164C19.1308 21.166 18.9304 21.2501 18.7215 21.2501H2.52849C2.3196 21.2501 2.11921 21.166 1.97115 21.0164C1.8231 20.8667 1.73941 20.6636 1.7384 20.4515V10.2678C1.73853 10.1015 1.78878 9.93928 1.88241 9.80287L9.12975 16.117C9.54492 16.4822 10.0758 16.6832 10.625 16.6832C11.1742 16.6832 11.7051 16.4822 12.1202 16.117L19.1756 9.97911L19.3713 9.80661C19.4627 9.94252 19.5116 10.1032 19.5116 10.2678L19.5116 20.4515Z" fill="#999999"/>
<path d="M19.6371 9.02672L19.6223 9.01172L17.1635 6.61954V4.39235C17.1637 4.34306 17.1542 4.29423 17.1357 4.24866C17.1172 4.20309 17.09 4.16169 17.0557 4.12684C17.0214 4.09199 16.9806 4.06437 16.9358 4.04559C16.8909 4.02681 16.8428 4.01723 16.7943 4.0174H14.4905L11.9467 1.54274C11.5921 1.1946 11.1182 1 10.625 1C10.1318 1 9.65789 1.1946 9.30328 1.54274L6.75953 4.0174H4.45569C4.40716 4.01723 4.35908 4.02681 4.31421 4.04559C4.26934 4.06437 4.22857 4.09199 4.19426 4.12684C4.15994 4.16169 4.13275 4.20309 4.11426 4.24866C4.09576 4.29423 4.08633 4.34306 4.0865 4.39235V6.61955L1.62765 9.01173L1.61288 9.02673C1.42215 9.1704 1.26733 9.35756 1.16088 9.57313C1.05442 9.7887 0.99932 10.0266 1.00001 10.2678V20.4515C1.00096 20.8625 1.16242 21.2564 1.44897 21.5467C1.73551 21.837 2.12374 22 2.52849 22H18.7215C19.1263 22 19.5145 21.837 19.801 21.5467C20.0876 21.2564 20.249 20.8625 20.25 20.4515V10.2678C20.2507 10.0266 20.1956 9.78869 20.0891 9.57312C19.9827 9.35755 19.8278 9.17039 19.6371 9.02672ZM17.1635 7.65442L18.836 9.28169L17.1635 10.7365L17.1635 7.65442ZM9.81276 2.08267C10.0312 1.86974 10.3222 1.75084 10.625 1.75084C10.9278 1.75084 11.2188 1.86974 11.4372 2.08267L13.4272 4.0174H7.82647L9.81276 2.08267ZM4.82489 4.76729H16.4251V11.3814L11.6403 15.5471C11.3586 15.7956 10.9981 15.9324 10.625 15.9324C10.2519 15.9324 9.89138 15.7956 9.60971 15.5471L4.82489 11.3814V4.76729ZM4.0865 7.65442V10.7402L2.56171 9.41293L2.41404 9.28168L4.0865 7.65442ZM19.5116 20.4515C19.5106 20.6636 19.4269 20.8667 19.2788 21.0164C19.1308 21.166 18.9304 21.2501 18.7215 21.2501H2.52849C2.3196 21.2501 2.11921 21.166 1.97115 21.0164C1.8231 20.8667 1.73941 20.6636 1.7384 20.4515V10.2678C1.73853 10.1015 1.78878 9.93928 1.88241 9.80287L9.12975 16.117C9.54492 16.4822 10.0758 16.6832 10.625 16.6832C11.1742 16.6832 11.7051 16.4822 12.1202 16.117L19.1756 9.97911L19.3713 9.80661C19.4627 9.94252 19.5116 10.1032 19.5116 10.2678L19.5116 20.4515Z" stroke="#999999" stroke-width="0.463855" mask="url(#path-1-outside-1_35_36066)"/>
</g>
<g id="Vector_2">
<mask id="path-2-outside-2_35_36066" maskUnits="userSpaceOnUse" x="6.125" y="5.25024" width="9" height="9" fill="black">
<rect fill="white" x="6.125" y="5.25024" width="9" height="9"/>
<path d="M9.04378 13.2502C8.84462 13.2494 8.65088 13.1829 8.49051 13.0605C8.32789 12.9408 8.20678 12.7701 8.14512 12.5735C8.08346 12.3769 8.08453 12.1649 8.14818 11.969L8.50735 10.8234C8.51715 10.7924 8.51719 10.759 8.50745 10.7279C8.49771 10.6969 8.4787 10.6698 8.45316 10.6507L7.51325 9.94282C7.35235 9.82167 7.23258 9.65082 7.17111 9.45477C7.10964 9.25872 7.10963 9.04752 7.17108 8.85146C7.23253 8.65541 7.35228 8.48455 7.51318 8.36338C7.67407 8.24221 7.86784 8.17696 8.06671 8.17697H9.22857C9.26005 8.17704 9.29073 8.16675 9.3162 8.14757C9.34166 8.12838 9.36058 8.10131 9.37023 8.07025L9.7294 6.92465C9.79087 6.72862 9.91063 6.55779 10.0715 6.43664C10.2324 6.31549 10.4261 6.25024 10.625 6.25024C10.8238 6.25024 11.0176 6.31549 11.1785 6.43664C11.3394 6.55779 11.4591 6.72862 11.5206 6.92465L11.8798 8.07025C11.8894 8.10131 11.9083 8.12838 11.9338 8.14757C11.9593 8.16675 11.9899 8.17704 12.0214 8.17697H13.1833C13.3822 8.17696 13.5759 8.24221 13.7368 8.36338C13.8977 8.48455 14.0175 8.65541 14.0789 8.85146C14.1404 9.04752 14.1404 9.25872 14.0789 9.45477C14.0174 9.65082 13.8977 9.82167 13.7367 9.94282L12.7968 10.6507C12.7713 10.6698 12.7523 10.6969 12.7426 10.7279C12.7328 10.759 12.7328 10.7924 12.7427 10.8234L13.1018 11.9688C13.1633 12.1649 13.1633 12.3761 13.1018 12.5722C13.0404 12.7683 12.9206 12.9391 12.7597 13.0603C12.5988 13.1815 12.405 13.2468 12.2061 13.2467C12.0072 13.2467 11.8135 13.1815 11.6526 13.0603L10.7125 12.3524C10.6871 12.3331 10.6565 12.3227 10.6251 12.3226C10.5937 12.3226 10.5631 12.333 10.5377 12.3522L9.59742 13.0603C9.43697 13.1829 9.24309 13.2494 9.04378 13.2502ZM8.06671 8.99862C8.03525 8.99862 8.00459 9.00896 7.97914 9.02814C7.95369 9.04732 7.93475 9.07436 7.92504 9.10539C7.91533 9.13641 7.91534 9.16983 7.92508 9.20084C7.93481 9.23186 7.95377 9.25888 7.97924 9.27804L8.91915 9.98594C9.08028 10.1069 9.20022 10.2778 9.26171 10.4739C9.32319 10.67 9.32304 10.8813 9.26129 11.0774L8.90212 12.2228C8.89236 12.2538 8.89233 12.2873 8.90204 12.3183C8.91175 12.3494 8.93071 12.3764 8.95618 12.3956C8.98165 12.4148 9.01234 12.4251 9.04383 12.4251C9.07532 12.4251 9.10599 12.4147 9.13144 12.3955L10.0715 11.6876C10.2323 11.5659 10.4261 11.5004 10.6251 11.5004C10.8241 11.5004 11.018 11.5661 11.1787 11.6878L12.1186 12.3955C12.144 12.4147 12.1747 12.4251 12.2062 12.4251C12.2377 12.4251 12.2684 12.4148 12.2939 12.3955C12.3194 12.3763 12.3384 12.3492 12.348 12.3182C12.3577 12.2871 12.3577 12.2536 12.3479 12.2226L11.9887 11.0774C11.927 10.8813 11.9268 10.67 11.9883 10.4739C12.0498 10.2778 12.1697 10.1069 12.3309 9.98594L13.2708 9.27804C13.2962 9.25888 13.3152 9.23186 13.3249 9.20084C13.3347 9.16983 13.3347 9.13641 13.325 9.10539C13.3153 9.07436 13.2963 9.04732 13.2709 9.02814C13.2454 9.00896 13.2148 8.99862 13.1833 8.99862H12.0214C11.8225 8.99902 11.6286 8.93393 11.4676 8.81273C11.3066 8.69152 11.187 8.52046 11.1258 8.32421L10.7667 7.1786C10.757 7.14759 10.738 7.12055 10.7126 7.10138C10.6871 7.08221 10.6565 7.07188 10.625 7.07188C10.5936 7.07188 10.5629 7.08221 10.5375 7.10138C10.512 7.12055 10.4931 7.14759 10.4834 7.1786L10.1242 8.32421C10.0631 8.52046 9.94339 8.69152 9.78243 8.81272C9.62146 8.93393 9.42752 8.99901 9.22857 8.9986L8.06671 8.99862Z"/>
</mask>
<path d="M9.04378 13.2502C8.84462 13.2494 8.65088 13.1829 8.49051 13.0605C8.32789 12.9408 8.20678 12.7701 8.14512 12.5735C8.08346 12.3769 8.08453 12.1649 8.14818 11.969L8.50735 10.8234C8.51715 10.7924 8.51719 10.759 8.50745 10.7279C8.49771 10.6969 8.4787 10.6698 8.45316 10.6507L7.51325 9.94282C7.35235 9.82167 7.23258 9.65082 7.17111 9.45477C7.10964 9.25872 7.10963 9.04752 7.17108 8.85146C7.23253 8.65541 7.35228 8.48455 7.51318 8.36338C7.67407 8.24221 7.86784 8.17696 8.06671 8.17697H9.22857C9.26005 8.17704 9.29073 8.16675 9.3162 8.14757C9.34166 8.12838 9.36058 8.10131 9.37023 8.07025L9.7294 6.92465C9.79087 6.72862 9.91063 6.55779 10.0715 6.43664C10.2324 6.31549 10.4261 6.25024 10.625 6.25024C10.8238 6.25024 11.0176 6.31549 11.1785 6.43664C11.3394 6.55779 11.4591 6.72862 11.5206 6.92465L11.8798 8.07025C11.8894 8.10131 11.9083 8.12838 11.9338 8.14757C11.9593 8.16675 11.9899 8.17704 12.0214 8.17697H13.1833C13.3822 8.17696 13.5759 8.24221 13.7368 8.36338C13.8977 8.48455 14.0175 8.65541 14.0789 8.85146C14.1404 9.04752 14.1404 9.25872 14.0789 9.45477C14.0174 9.65082 13.8977 9.82167 13.7367 9.94282L12.7968 10.6507C12.7713 10.6698 12.7523 10.6969 12.7426 10.7279C12.7328 10.759 12.7328 10.7924 12.7427 10.8234L13.1018 11.9688C13.1633 12.1649 13.1633 12.3761 13.1018 12.5722C13.0404 12.7683 12.9206 12.9391 12.7597 13.0603C12.5988 13.1815 12.405 13.2468 12.2061 13.2467C12.0072 13.2467 11.8135 13.1815 11.6526 13.0603L10.7125 12.3524C10.6871 12.3331 10.6565 12.3227 10.6251 12.3226C10.5937 12.3226 10.5631 12.333 10.5377 12.3522L9.59742 13.0603C9.43697 13.1829 9.24309 13.2494 9.04378 13.2502ZM8.06671 8.99862C8.03525 8.99862 8.00459 9.00896 7.97914 9.02814C7.95369 9.04732 7.93475 9.07436 7.92504 9.10539C7.91533 9.13641 7.91534 9.16983 7.92508 9.20084C7.93481 9.23186 7.95377 9.25888 7.97924 9.27804L8.91915 9.98594C9.08028 10.1069 9.20022 10.2778 9.26171 10.4739C9.32319 10.67 9.32304 10.8813 9.26129 11.0774L8.90212 12.2228C8.89236 12.2538 8.89233 12.2873 8.90204 12.3183C8.91175 12.3494 8.93071 12.3764 8.95618 12.3956C8.98165 12.4148 9.01234 12.4251 9.04383 12.4251C9.07532 12.4251 9.10599 12.4147 9.13144 12.3955L10.0715 11.6876C10.2323 11.5659 10.4261 11.5004 10.6251 11.5004C10.8241 11.5004 11.018 11.5661 11.1787 11.6878L12.1186 12.3955C12.144 12.4147 12.1747 12.4251 12.2062 12.4251C12.2377 12.4251 12.2684 12.4148 12.2939 12.3955C12.3194 12.3763 12.3384 12.3492 12.348 12.3182C12.3577 12.2871 12.3577 12.2536 12.3479 12.2226L11.9887 11.0774C11.927 10.8813 11.9268 10.67 11.9883 10.4739C12.0498 10.2778 12.1697 10.1069 12.3309 9.98594L13.2708 9.27804C13.2962 9.25888 13.3152 9.23186 13.3249 9.20084C13.3347 9.16983 13.3347 9.13641 13.325 9.10539C13.3153 9.07436 13.2963 9.04732 13.2709 9.02814C13.2454 9.00896 13.2148 8.99862 13.1833 8.99862H12.0214C11.8225 8.99902 11.6286 8.93393 11.4676 8.81273C11.3066 8.69152 11.187 8.52046 11.1258 8.32421L10.7667 7.1786C10.757 7.14759 10.738 7.12055 10.7126 7.10138C10.6871 7.08221 10.6565 7.07188 10.625 7.07188C10.5936 7.07188 10.5629 7.08221 10.5375 7.10138C10.512 7.12055 10.4931 7.14759 10.4834 7.1786L10.1242 8.32421C10.0631 8.52046 9.94339 8.69152 9.78243 8.81272C9.62146 8.93393 9.42752 8.99901 9.22857 8.9986L8.06671 8.99862Z" fill="#999999"/>
<path d="M9.04378 13.2502C8.84462 13.2494 8.65088 13.1829 8.49051 13.0605C8.32789 12.9408 8.20678 12.7701 8.14512 12.5735C8.08346 12.3769 8.08453 12.1649 8.14818 11.969L8.50735 10.8234C8.51715 10.7924 8.51719 10.759 8.50745 10.7279C8.49771 10.6969 8.4787 10.6698 8.45316 10.6507L7.51325 9.94282C7.35235 9.82167 7.23258 9.65082 7.17111 9.45477C7.10964 9.25872 7.10963 9.04752 7.17108 8.85146C7.23253 8.65541 7.35228 8.48455 7.51318 8.36338C7.67407 8.24221 7.86784 8.17696 8.06671 8.17697H9.22857C9.26005 8.17704 9.29073 8.16675 9.3162 8.14757C9.34166 8.12838 9.36058 8.10131 9.37023 8.07025L9.7294 6.92465C9.79087 6.72862 9.91063 6.55779 10.0715 6.43664C10.2324 6.31549 10.4261 6.25024 10.625 6.25024C10.8238 6.25024 11.0176 6.31549 11.1785 6.43664C11.3394 6.55779 11.4591 6.72862 11.5206 6.92465L11.8798 8.07025C11.8894 8.10131 11.9083 8.12838 11.9338 8.14757C11.9593 8.16675 11.9899 8.17704 12.0214 8.17697H13.1833C13.3822 8.17696 13.5759 8.24221 13.7368 8.36338C13.8977 8.48455 14.0175 8.65541 14.0789 8.85146C14.1404 9.04752 14.1404 9.25872 14.0789 9.45477C14.0174 9.65082 13.8977 9.82167 13.7367 9.94282L12.7968 10.6507C12.7713 10.6698 12.7523 10.6969 12.7426 10.7279C12.7328 10.759 12.7328 10.7924 12.7427 10.8234L13.1018 11.9688C13.1633 12.1649 13.1633 12.3761 13.1018 12.5722C13.0404 12.7683 12.9206 12.9391 12.7597 13.0603C12.5988 13.1815 12.405 13.2468 12.2061 13.2467C12.0072 13.2467 11.8135 13.1815 11.6526 13.0603L10.7125 12.3524C10.6871 12.3331 10.6565 12.3227 10.6251 12.3226C10.5937 12.3226 10.5631 12.333 10.5377 12.3522L9.59742 13.0603C9.43697 13.1829 9.24309 13.2494 9.04378 13.2502ZM8.06671 8.99862C8.03525 8.99862 8.00459 9.00896 7.97914 9.02814C7.95369 9.04732 7.93475 9.07436 7.92504 9.10539C7.91533 9.13641 7.91534 9.16983 7.92508 9.20084C7.93481 9.23186 7.95377 9.25888 7.97924 9.27804L8.91915 9.98594C9.08028 10.1069 9.20022 10.2778 9.26171 10.4739C9.32319 10.67 9.32304 10.8813 9.26129 11.0774L8.90212 12.2228C8.89236 12.2538 8.89233 12.2873 8.90204 12.3183C8.91175 12.3494 8.93071 12.3764 8.95618 12.3956C8.98165 12.4148 9.01234 12.4251 9.04383 12.4251C9.07532 12.4251 9.10599 12.4147 9.13144 12.3955L10.0715 11.6876C10.2323 11.5659 10.4261 11.5004 10.6251 11.5004C10.8241 11.5004 11.018 11.5661 11.1787 11.6878L12.1186 12.3955C12.144 12.4147 12.1747 12.4251 12.2062 12.4251C12.2377 12.4251 12.2684 12.4148 12.2939 12.3955C12.3194 12.3763 12.3384 12.3492 12.348 12.3182C12.3577 12.2871 12.3577 12.2536 12.3479 12.2226L11.9887 11.0774C11.927 10.8813 11.9268 10.67 11.9883 10.4739C12.0498 10.2778 12.1697 10.1069 12.3309 9.98594L13.2708 9.27804C13.2962 9.25888 13.3152 9.23186 13.3249 9.20084C13.3347 9.16983 13.3347 9.13641 13.325 9.10539C13.3153 9.07436 13.2963 9.04732 13.2709 9.02814C13.2454 9.00896 13.2148 8.99862 13.1833 8.99862H12.0214C11.8225 8.99902 11.6286 8.93393 11.4676 8.81273C11.3066 8.69152 11.187 8.52046 11.1258 8.32421L10.7667 7.1786C10.757 7.14759 10.738 7.12055 10.7126 7.10138C10.6871 7.08221 10.6565 7.07188 10.625 7.07188C10.5936 7.07188 10.5629 7.08221 10.5375 7.10138C10.512 7.12055 10.4931 7.14759 10.4834 7.1786L10.1242 8.32421C10.0631 8.52046 9.94339 8.69152 9.78243 8.81272C9.62146 8.93393 9.42752 8.99901 9.22857 8.9986L8.06671 8.99862Z" stroke="#999999" stroke-width="0.463855" mask="url(#path-2-outside-2_35_36066)"/>
</g>
</g>
</svg>
