<svg width="27" height="21" viewBox="0 0 27 21" fill="none" xmlns="http://www.w3.org/2000/svg">
<path d="M0.84375 4.23184H14.5817C14.9607 5.71883 16.3457 6.82472 17.9922 6.82472C19.6388 6.82472 21.0238 5.71883 21.4027 4.23184H26.1562C26.6222 4.23184 27 3.86493 27 3.41239C27 2.95985 26.6222 2.59294 26.1562 2.59294H21.4027C21.0238 1.10595 19.6388 0 17.9922 0C16.3456 0 14.9606 1.10595 14.5817 2.59294H0.84375C0.377789 2.59294 0 2.95985 0 3.41239C0 3.86493 0.377789 4.23184 0.84375 4.23184ZM17.9922 1.6389C18.9991 1.6389 19.8183 2.43448 19.8183 3.41234C19.8183 4.39025 18.9991 5.18583 17.9922 5.18583C16.9853 5.18583 16.1661 4.39025 16.1661 3.41234C16.1661 2.43448 16.9853 1.6389 17.9922 1.6389ZM0.84375 11.3194H5.59733C5.97628 12.8064 7.36124 13.9123 9.00782 13.9123C10.6544 13.9123 12.0394 12.8064 12.4183 11.3194H26.1562C26.6222 11.3194 27 10.9525 27 10.5C27 10.0475 26.6222 9.68055 26.1562 9.68055H12.4183C12.0393 8.19356 10.6543 7.08761 9.00777 7.08761C7.36119 7.08761 5.97623 8.19356 5.59728 9.68055H0.84375C0.377789 9.68055 0 10.0475 0 10.5C0 10.9525 0.377736 11.3194 0.84375 11.3194ZM9.00777 8.72651C10.0147 8.72651 10.8339 9.52209 10.8339 10.5C10.8339 11.4779 10.0147 12.2734 9.00777 12.2734C8.00086 12.2734 7.18168 11.4779 7.18168 10.5C7.18168 9.52209 8.00086 8.72651 9.00777 8.72651ZM26.1562 16.7682H21.4027C21.0237 15.2812 19.6388 14.1752 17.9922 14.1752C16.3456 14.1752 14.9606 15.2812 14.5817 16.7682H0.84375C0.377789 16.7682 0 17.1351 0 17.5876C0 18.0402 0.377789 18.4071 0.84375 18.4071H14.5817C14.9607 19.8941 16.3457 21 17.9922 21C19.6388 21 21.0238 19.8941 21.4027 18.4071H26.1562C26.6222 18.4071 27 18.0402 27 17.5876C27 17.1351 26.6223 16.7682 26.1562 16.7682ZM17.9922 19.3611C16.9853 19.3611 16.1661 18.5655 16.1661 17.5876C16.1661 16.6097 16.9853 15.8141 17.9922 15.8141C18.9991 15.8141 19.8183 16.6097 19.8183 17.5876C19.8183 18.5655 18.9991 19.3611 17.9922 19.3611Z" fill="#ffffff"/>
</svg>
