<svg width="24" height="24" viewBox="0 0 23 23" fill="none" xmlns="http://www.w3.org/2000/svg">
<path d="M8.75408 19.9079V16.9775C8.75408 16.2295 9.36492 15.6231 10.1184 15.6231H12.8728C13.2347 15.6231 13.5817 15.7658 13.8376 16.0198C14.0934 16.2738 14.2372 16.6183 14.2372 16.9775V19.9079C14.2349 20.2189 14.3577 20.5179 14.5784 20.7386C14.7991 20.9593 15.0995 21.0834 15.4127 21.0834H17.2919C18.1696 21.0857 19.0121 20.7411 19.6335 20.1259C20.2549 19.5106 20.6041 18.6751 20.6041 17.8038V9.45582C20.6041 8.75202 20.2898 8.08443 19.746 7.63289L13.3534 2.56446C12.2413 1.67579 10.6481 1.70448 9.56925 2.6326L3.32247 7.63289C2.75296 8.07112 2.41257 8.74069 2.39575 9.45582V17.7953C2.39575 19.6113 3.87866 21.0834 5.70792 21.0834H7.5442C8.19484 21.0834 8.72362 20.5623 8.72834 19.9164L8.75408 19.9079Z" stroke="none" stroke-width="1.5241"/>
</svg>
