<svg width="23" height="33" viewBox="0 0 23 33" fill="none" xmlns="http://www.w3.org/2000/svg">
<path d="M22.7121 13.149C22.4651 12.605 22.0656 12.1444 21.5619 11.8231C21.0583 11.5018 20.4722 11.3335 19.8749 11.3387H15.2887L19.4042 4.10022C19.6498 3.68922 19.7812 3.22011 19.785 2.74133C19.7887 2.26255 19.6645 1.79145 19.4253 1.37669C19.1903 0.956553 18.8468 0.607195 18.4307 0.365055C18.0146 0.122915 17.5411 -0.00313288 17.0597 5.91535e-05C16.4366 0.000674377 15.8325 0.214466 15.3476 0.605917C15.3233 0.625515 15.2997 0.646028 15.2769 0.667456L1.33683 13.7382C0.739071 14.2573 0.314288 14.9467 0.119433 15.7141C-0.0754219 16.4814 -0.0310365 17.29 0.246639 18.0314C0.524315 18.7727 1.02201 19.4115 1.67299 19.8621C2.32398 20.3126 3.09714 20.5534 3.88883 20.5521H8.24484L3.83537 29.0192C3.83101 29.0278 3.82649 29.0363 3.82229 29.0451C3.52924 29.6212 3.45393 30.2838 3.61018 30.9111C3.76643 31.5383 4.14375 32.0882 4.67284 32.4596C5.19232 32.8443 5.83315 33.0287 6.47765 32.9789C7.12216 32.9292 7.72709 32.6486 8.18136 32.1887C8.19509 32.1751 8.2085 32.1612 8.22158 32.1472L18.2077 21.3632C18.324 21.2393 18.4148 21.0936 18.4746 20.9345C18.5344 20.7754 18.5622 20.606 18.5562 20.4361C18.5503 20.2662 18.5108 20.0992 18.4401 19.9446C18.3693 19.7901 18.2687 19.651 18.1439 19.5355C18.0192 19.42 17.8729 19.3303 17.7133 19.2716C17.5538 19.2129 17.3842 19.1864 17.2144 19.1935C17.0445 19.2007 16.8778 19.2413 16.7237 19.3132C16.5697 19.385 16.4314 19.4866 16.3168 19.6122L6.35361 30.3714C6.3121 30.4102 6.26946 30.434 6.18014 30.3695C6.08517 30.301 6.10148 30.251 6.12829 30.1956L11.5114 19.8583C11.6137 19.6619 11.6636 19.4425 11.6564 19.2211C11.6492 18.9998 11.5851 18.7841 11.4702 18.5947C11.3553 18.4054 11.1936 18.2489 11.0006 18.1402C10.8077 18.0316 10.5899 17.9745 10.3685 17.9745H3.88835C3.55105 17.9786 3.22548 17.8509 2.98086 17.6187C2.73624 17.3864 2.59186 17.0679 2.57843 16.7308C2.56391 16.5308 2.59803 16.3303 2.67789 16.1463C2.75774 15.9624 2.88095 15.8005 3.03698 15.6745C3.05152 15.6619 3.06589 15.6492 3.07994 15.6359L16.9867 2.59632C17.0085 2.58374 17.0333 2.57711 17.0584 2.57709C17.0838 2.5771 17.1087 2.58381 17.1306 2.59656C17.1525 2.6093 17.1706 2.62761 17.1831 2.64963C17.1956 2.67166 17.2021 2.6966 17.2018 2.72193C17.2016 2.74727 17.1946 2.77208 17.1817 2.79385C17.1772 2.80145 17.1726 2.81001 17.1683 2.81711L11.9525 11.9914C11.8411 12.1874 11.783 12.4092 11.7841 12.6347C11.7853 12.8601 11.8455 13.0813 11.9589 13.2762C12.0723 13.4711 12.2348 13.6328 12.4302 13.7453C12.6257 13.8577 12.8472 13.9168 13.0726 13.9169H19.8734C19.9775 13.9122 20.0805 13.9392 20.1689 13.9943C20.2573 14.0494 20.327 14.1299 20.3688 14.2254C20.4151 14.3217 20.4311 14.4297 20.4147 14.5353C20.3984 14.6409 20.3504 14.739 20.2772 14.8168C20.0583 15.0765 19.9509 15.4121 19.9781 15.7506C20.0053 16.0891 20.1651 16.4031 20.4226 16.6245C20.6801 16.8459 21.0146 16.9566 21.3534 16.9327C21.6921 16.9087 22.0077 16.752 22.2316 16.4966C22.6272 16.0451 22.8832 15.4884 22.9685 14.8941C23.0538 14.2999 22.9648 13.6936 22.7121 13.149Z" fill="#14EBA1"/>
</svg>
