<?xml version="1.0" encoding="UTF-8" standalone="no"?>
<svg
   width="24"
   height="24"
   viewBox="0 -1.5 24 24"
   fill="none"
   version="1.1"
   id="svg1"
   sodipodi:docname="payment.svg"
   inkscape:version="1.3.2 (091e20ef0f, 2023-11-25, custom)"
   xmlns:inkscape="http://www.inkscape.org/namespaces/inkscape"
   xmlns:sodipodi="http://sodipodi.sourceforge.net/DTD/sodipodi-0.dtd"
   xmlns="http://www.w3.org/2000/svg"
   xmlns:svg="http://www.w3.org/2000/svg">
  <defs
     id="defs1" />
  <sodipodi:namedview
     id="namedview1"
     pagecolor="#ffffff"
     bordercolor="#000000"
     borderopacity="0.25"
     inkscape:showpageshadow="2"
     inkscape:pageopacity="0.0"
     inkscape:pagecheckerboard="0"
     inkscape:deskcolor="#d1d1d1"
     inkscape:zoom="16.558084"
     inkscape:cx="9.0590193"
     inkscape:cy="11.776725"
     inkscape:window-width="1342"
     inkscape:window-height="722"
     inkscape:window-x="0"
     inkscape:window-y="0"
     inkscape:window-maximized="1"
     inkscape:current-layer="svg1" />
  <path
     d="M 11.254803,9.2496849 C 10.751601,9.1246534 10.248399,8.8745904 9.8709978,8.4994959 9.4935965,8.3744644 9.3677961,7.9993698 9.3677961,7.7493068 c 0,-0.250063 0.1258004,-0.6251575 0.3774013,-0.750189 C 10.122551,6.7490548 10.5,6.4989917 10.877449,6.6240232 c 0.754803,0 1.383757,0.3750946 1.76111,0.8752206 L 13.770811,5.9988657 C 13.393458,5.6237712 13.016009,5.3737082 12.638559,5.1236451 12.261206,4.8735821 11.758004,4.7485506 11.254803,4.7485506 V 2.9981095 H 9.7451974 V 4.7485506 C 9.1161952,4.8735821 8.4871931,5.2486767 7.9839913,5.7488027 7.4807896,6.3739602 7.1033883,7.1241493 7.2291887,7.8743383 c 0,0.7501891 0.2516009,1.5003781 0.7548026,2.0005042 C 8.6129935,10.5 9.4935965,10.875142 10.248399,11.250189 c 0.377449,0.125079 0.880555,0.375142 1.258004,0.625205 0.251601,0.250063 0.37745,0.62511 0.37745,1.000157 0,0.375142 -0.125849,0.750189 -0.37745,1.125331 -0.377449,0.375142 -0.880555,0.500126 -1.258004,0.500126 -0.5032016,0 -1.1322038,-0.124984 -1.5096051,-0.500126 C 8.3613926,13.750819 7.9839913,13.375772 7.7323905,13.00063 l -1.2580044,1.375394 c 0.3774013,0.500126 0.7548026,0.875173 1.2580044,1.250315 0.6290021,0.375047 1.3838047,0.750094 2.1386073,0.750094 v 1.625457 h 1.3838052 v -1.87552 c 0.754802,-0.124984 1.383852,-0.500126 1.887054,-1.000252 0.628954,-0.62511 1.006308,-1.625362 1.006308,-2.50063 0,-0.750189 -0.251601,-1.625362 -0.880555,-2.125488 C 12.638559,9.8748425 12.009605,9.4997479 11.254803,9.2496849 Z M 10.5,0.49747935 C 4.9647809,0.49747935 0.4359653,4.9986136 0.4359653,10.5 c 0,5.501386 4.5288156,10.002521 10.0640347,10.002521 5.535219,0 10.064035,-4.501135 10.064035,-10.002521 C 20.564035,4.9986136 16.035219,0.49747935 10.5,0.49747935 Z m 0,18.62964665 c -4.7804165,0 -8.6802299,-3.875929 -8.6802299,-8.627126 0,-4.7511973 3.8998134,-8.6271741 8.6802299,-8.6271741 4.780416,0 8.680182,3.8759768 8.680182,8.6271741 0,4.751197 -3.899766,8.627126 -8.680182,8.627126 z"
     fill="#999999"
     id="path1"
     style="stroke-width:0.955546" />
</svg>
