<svg width="23" height="23" viewBox="0 0 23 23" fill="none" xmlns="http://www.w3.org/2000/svg">
<path opacity="0.4" fill-rule="evenodd" clip-rule="evenodd" d="M15.3405 1.88379H18.4175C19.6906 1.88379 20.7233 2.9255 20.7233 4.2106V7.31334C20.7233 8.59747 19.6906 9.64016 18.4175 9.64016H15.3405C14.0664 9.64016 13.0337 8.59747 13.0337 7.31334V4.2106C13.0337 2.9255 14.0664 1.88379 15.3405 1.88379Z" stroke="#848688" stroke-width="1.88392" stroke-linecap="round" stroke-linejoin="round"/>
<path fill-rule="evenodd" clip-rule="evenodd" d="M4.19082 1.88379H7.26685C8.5409 1.88379 9.57364 2.9255 9.57364 4.2106V7.31334C9.57364 8.59747 8.5409 9.64016 7.26685 9.64016H4.19082C2.91678 9.64016 1.88403 8.59747 1.88403 7.31334V4.2106C1.88403 2.9255 2.91678 1.88379 4.19082 1.88379Z" stroke="#999999" stroke-width="1.88392" stroke-linecap="round" stroke-linejoin="round"/>
<path fill-rule="evenodd" clip-rule="evenodd" d="M4.19082 12.9666H7.26685C8.5409 12.9666 9.57364 14.0083 9.57364 15.2943V18.3961C9.57364 19.6812 8.5409 20.7229 7.26685 20.7229H4.19082C2.91678 20.7229 1.88403 19.6812 1.88403 18.3961V15.2943C1.88403 14.0083 2.91678 12.9666 4.19082 12.9666Z" stroke="#999999" stroke-width="1.88392" stroke-linecap="round" stroke-linejoin="round"/>
<path fill-rule="evenodd" clip-rule="evenodd" d="M15.3405 12.9666H18.4175C19.6906 12.9666 20.7233 14.0083 20.7233 15.2943V18.3961C20.7233 19.6812 19.6906 20.7229 18.4175 20.7229H15.3405C14.0664 20.7229 13.0337 19.6812 13.0337 18.3961V15.2943C13.0337 14.0083 14.0664 12.9666 15.3405 12.9666Z" stroke="#999999" stroke-width="1.88392" stroke-linecap="round" stroke-linejoin="round"/>
</svg>
