<svg width="28" height="28" viewBox="0 0 28 28" fill="none" xmlns="http://www.w3.org/2000/svg">
<path d="M4.30082 24.2416C4.74099 23.7486 7.69818 21.4262 9.16803 20.2812C9.70336 19.8642 10.36 19.64 11.0386 19.64C12.6794 19.64 15.8413 19.64 17.49 19.64C18.1765 19.64 18.8397 19.8738 19.3924 20.281C21.2903 21.6791 23.0695 22.7209 25.0082 24.2416M6.60165 26.5421H21.9405C24.4819 26.5421 26.5421 24.4819 26.5421 21.9405V6.60165C26.5421 4.06023 24.4819 2 21.9405 2H6.60165C4.06023 2 2 4.06023 2 6.60165V21.9405C2 24.4819 4.06023 26.5421 6.60165 26.5421ZM18.6663 10.7841C18.6663 8.44298 16.69 6.53017 14.2711 6.53017C11.8522 6.53017 9.87578 8.44298 9.87578 10.7841C9.87578 13.1252 11.8522 15.038 14.2711 15.038C16.69 15.038 18.6663 13.1252 18.6663 10.7841Z" stroke="#5F66E9" stroke-width="2.76099"/>
</svg>
