<svg width="57" height="43" viewBox="0 0 57 43" fill="none" xmlns="http://www.w3.org/2000/svg">
<rect width="57" height="43" fill="#14EB77"/>
<path d="M38.1923 12.8076C35.7369 10.3522 32.4723 9 28.9999 9C28.9997 9 29 9 28.9998 9C25.5277 9 22.2629 10.3524 19.8076 12.8076C17.3523 15.263 16 18.5275 16 22C16.0001 24.2105 16.5627 26.383 17.6297 28.3046L16.0281 34.0331C15.9541 34.298 16.0286 34.5823 16.2231 34.7768C16.4176 34.9713 16.7018 35.0458 16.9669 34.9718L22.6956 33.3702C24.6169 34.4374 26.7894 34.9999 28.9999 35C32.4724 35 35.737 33.6477 38.1924 31.1924C40.6478 28.737 42 25.4724 42 21.9999C41.9999 18.5275 40.6476 15.263 38.1923 12.8076ZM28.9999 33.4766C26.9511 33.4765 24.94 32.9295 23.1839 31.8947C23.0656 31.825 22.9319 31.7892 22.7972 31.7892C22.7284 31.7892 22.6595 31.7985 22.5921 31.8173L17.8596 33.1404L19.1826 28.408C19.2384 28.2085 19.2105 27.9948 19.1053 27.8163C18.0705 26.0599 17.5235 24.0487 17.5234 21.9999C17.5234 18.9344 18.7172 16.0524 20.8849 13.8848C23.0525 11.7172 25.9345 10.5234 28.9999 10.5234C35.328 10.5234 40.4764 15.6718 40.4766 21.9999C40.4766 28.3282 35.3282 33.4766 28.9999 33.4766Z" fill="white"/>
<path d="M34.573 23.0037C34.1082 22.5387 33.4883 22.2827 32.8276 22.2827C32.1669 22.2827 31.5471 22.5387 31.0823 23.0037L30.7298 23.3562C30.6428 23.4432 30.526 23.4911 30.4008 23.4911C30.2755 23.4911 30.1587 23.4432 30.0716 23.356L27.6445 20.9286C27.5576 20.8417 27.5097 20.7247 27.5097 20.5994C27.5097 20.4741 27.5575 20.3573 27.6443 20.2704L27.997 19.9178C28.9594 18.9552 28.9594 17.3889 27.997 16.4264L27.2918 15.7208C26.8268 15.2559 26.207 15 25.5463 15C24.8857 15 24.2658 15.256 23.8009 15.721L23.2751 16.247C22.1634 17.359 21.7598 19.0149 22.1387 20.9098C22.4952 22.6929 23.5144 24.498 25.0085 25.9925C26.8914 27.8756 29.2894 28.9998 31.4233 29H31.4237C32.7683 29 33.9194 28.5597 34.7523 27.7266L35.2782 27.2006C36.2406 26.238 36.2406 24.6717 35.2782 23.709L34.573 23.0037ZM34.2028 26.1249L33.6769 26.6509C33.1354 27.1925 32.3563 27.4788 31.4238 27.4788H31.4235C29.684 27.4787 27.6879 26.521 26.0841 24.9169C24.7999 23.6324 23.9284 22.1034 23.6301 20.6115C23.3542 19.2314 23.6101 18.0634 24.3507 17.3227L24.8765 16.7967C25.054 16.6191 25.2919 16.5213 25.5464 16.5213C25.8009 16.5213 26.0389 16.6191 26.2164 16.7966L26.9216 17.502C27.2909 17.8715 27.2909 18.4727 26.9216 18.8421L26.569 19.1948C26.1948 19.569 25.9887 20.068 25.9888 20.5997C25.9888 21.1313 26.195 21.6302 26.5691 22.0044L28.9962 24.4318C29.3704 24.8062 29.8693 25.0124 30.4009 25.0124C30.9323 25.0124 31.4311 24.8063 31.8052 24.4321L32.1578 24.0794C32.3354 23.9018 32.5733 23.804 32.8277 23.804C33.0821 23.804 33.32 23.9018 33.4976 24.0795L34.2028 24.7848C34.5722 25.1542 34.5722 25.7554 34.2028 26.1249Z" fill="white"/>
</svg>
